<?xml version="1.0" standalone="no"?>
<!DOCTYPE svg PUBLIC "-//W3C//DTD SVG 20010904//EN"
 "http://www.w3.org/TR/2001/REC-SVG-20010904/DTD/svg10.dtd">
<svg version="1.0" xmlns="http://www.w3.org/2000/svg"
 width="204.000000pt" height="208.000000pt" viewBox="0 0 204.000000 208.000000"
 preserveAspectRatio="xMidYMid meet">
<metadata>
Created by potrace 1.10, written by Peter Selinger 2001-2011
</metadata>
<g transform="translate(0.000000,208.000000) scale(0.100000,-0.100000)"
fill="#000000" stroke="none">
<path d="M28 2054 c-16 -8 -28 -21 -28 -29 0 -18 5 -18 30 -5 18 10 18 9 5
-25 -12 -28 -15 -119 -18 -499 l-2 -465 29 -30 c17 -17 40 -31 53 -31 32 0 28
-12 -9 -30 -18 -8 -41 -28 -52 -43 -20 -27 -21 -40 -19 -380 1 -194 2 -362 3
-374 0 -12 15 -39 32 -59 32 -37 33 -37 8 -32 -14 3 -33 9 -44 13 -34 15 -13
-19 25 -38 32 -16 95 -17 996 -15 l962 3 23 22 c25 26 19 40 -10 24 -12 -6
-29 -11 -39 -11 -16 1 -17 1 -1 10 9 6 26 26 39 46 22 36 22 38 17 382 -6 376
-10 402 -63 444 -31 24 -31 31 0 48 60 32 59 23 61 515 2 418 1 453 -16 493
l-19 42 26 -6 c19 -5 24 -3 21 7 -13 38 -23 39 -1018 38 -836 0 -969 -2 -992
-15z m1926 -45 c14 -7 27 -17 30 -24 2 -6 5 -218 7 -471 3 -476 2 -492 -38
-509 -10 -4 -207 -9 -438 -10 -232 0 -426 -5 -433 -9 -7 -4 -12 -16 -12 -26 0
-29 38 -35 203 -33 160 3 194 -5 219 -50 8 -16 11 -94 9 -288 -3 -287 -1 -295
51 -287 l23 3 5 287 c6 361 -10 332 194 336 l144 3 34 -29 33 -30 6 -364 c4
-248 2 -371 -5 -388 -23 -51 2 -50 -959 -50 -803 0 -903 2 -933 16 -18 9 -36
25 -40 36 -3 11 -6 185 -6 386 l0 367 27 22 26 23 433 0 c438 0 456 1 456 36
0 7 -7 20 -16 29 -14 14 -36 15 -168 9 -158 -7 -210 0 -238 33 -7 9 -15 48
-18 87 -5 66 -7 71 -29 74 -36 5 -51 -22 -51 -92 0 -34 -4 -67 -8 -73 -21 -33
-313 -44 -384 -15 l-28 12 0 479 0 480 26 20 c27 21 31 21 940 21 660 0 920
-3 938 -11z m-1383 -1021 l31 -26 -46 -7 c-25 -4 -66 -4 -91 0 l-46 6 33 22
c18 13 37 36 42 52 5 17 11 37 13 45 3 9 10 -2 18 -25 8 -22 28 -52 46 -67z
m1038 -24 l32 -7 -30 -18 c-56 -34 -61 -58 -61 -270 0 -106 -2 -190 -5 -187
-3 3 -5 88 -5 190 l-1 186 -30 42 c-17 23 -41 45 -52 48 -21 6 -21 6 3 13 33
9 109 11 149 3z"/>
<path d="M162 1540 c3 -286 5 -321 20 -336 14 -14 22 -15 41 -7 l25 11 4 216
c2 142 8 220 15 227 9 9 82 -46 288 -215 152 -124 282 -226 289 -226 34 0 36
24 34 321 l-3 294 -33 3 c-20 2 -34 -2 -36 -10 -3 -7 -7 -113 -9 -236 -3 -123
-7 -225 -10 -228 -2 -3 -44 28 -93 69 -49 40 -189 155 -312 255 l-223 182 3
-320z m688 -26 c0 -212 -2 -254 -14 -254 -15 0 -101 65 -126 95 -12 15 -7 14
27 -6 l42 -24 25 24 26 24 0 204 c0 134 3 202 10 198 6 -4 10 -102 10 -261z
m-565 200 c33 -31 47 -49 31 -39 -27 16 -30 16 -55 -3 -33 -25 -39 -63 -40
-264 -1 -93 -5 -159 -11 -163 -10 -6 -12 39 -14 340 -1 88 1 166 3 173 6 22
25 12 86 -44z"/>
<path d="M1332 1817 c-22 -23 -22 -30 -22 -301 0 -275 0 -277 23 -300 45 -45
267 -42 393 5 149 56 167 194 37 288 -24 17 -43 35 -43 40 0 5 11 33 25 63 61
131 4 201 -179 219 -160 15 -209 12 -234 -14z m68 -15 c0 -4 -4 -12 -10 -18
-5 -5 -19 -27 -29 -49 l-20 -40 -1 42 c0 32 5 45 22 57 25 18 38 20 38 8z
m240 -51 c37 -27 41 -101 7 -135 -32 -32 -93 -48 -170 -44 -57 3 -63 5 -76 32
-18 39 -17 120 3 150 19 30 39 33 136 23 47 -4 84 -14 100 -26z m78 -3 c14
-14 16 -99 3 -113 -20 -23 -32 -84 -21 -105 6 -12 10 -23 8 -24 -2 -1 -34 5
-73 14 l-70 17 48 23 c74 35 90 62 83 138 -5 62 -1 73 22 50z m-306 -197 l25
-13 -34 -32 c-28 -26 -36 -42 -45 -98 -9 -58 -8 -74 6 -112 9 -24 24 -47 31
-50 24 -9 17 -25 -7 -19 -45 11 -48 25 -47 237 l0 201 23 -50 c13 -28 34 -56
48 -64z m219 -61 c68 -13 108 -50 115 -106 11 -91 -54 -127 -229 -128 -121 -1
-127 4 -127 112 0 70 10 109 34 124 16 11 145 10 207 -2z m158 -45 c43 -56 34
-132 -19 -160 l-27 -14 19 37 c21 40 19 121 -3 148 -7 9 -8 14 -1 14 6 0 20
-11 31 -25z"/>
<path d="M435 791 c-78 -20 -151 -77 -188 -146 -31 -58 -31 -193 0 -251 67
-125 222 -183 372 -138 75 22 153 100 175 173 9 30 16 71 16 91 0 105 -68 209
-162 250 -57 24 -161 35 -213 21z m-77 -88 c-61 -53 -88 -109 -88 -180 1 -76
25 -128 85 -181 48 -42 51 -57 5 -25 -135 92 -143 298 -17 391 58 43 67 40 15
-5z m351 -14 c27 -25 61 -95 60 -124 0 -11 -11 4 -25 35 -14 30 -45 74 -72 99
-39 36 -42 41 -17 28 17 -8 41 -25 54 -38z m-144 30 c59 -15 129 -77 151 -134
47 -125 -48 -262 -190 -273 -41 -3 -61 2 -106 25 -171 88 -155 314 27 379 47
16 63 17 118 3z m185 -304 c-21 -44 -90 -115 -111 -115 -12 0 51 60 63 60 9 0
58 101 59 124 2 19 2 19 6 -2 3 -12 -5 -42 -17 -67z"/>
</g>
</svg>
