<?xml version="1.0" standalone="yes"?>
<svg xmlns="http://www.w3.org/2000/svg" width="204" height="208">
<path style="fill:#ffffff; stroke:none;" d="M0 3L7 1C4.12047 -0.659058 0.771775 -0.601608 0 3z"/>
<!-- <path style="fill:#df5b2d; stroke:none;" d="M7.00077 0.479172C-5.47235 3.07234 0 35.664 0 46L0 160L0 191C0 194.708 -1.03732 200.439 1.02778 203.721C3.42325 207.529 9.99389 207.886 14 207.985C25.3187 208.267 36.6775 208 48 208L148 208C163.303 208 182.117 210.958 196.999 207.316C209.41 204.278 204 172.407 204 162L204 46L204 16C204 12.4333 205.091 6.53198 202.972 3.43286C200.558 -0.0975647 193.772 0.0487366 190 0.00386047C178.67 -0.130936 167.331 0 156 0L56 0C40.4938 0 22.1866 -2.67798 7.00077 0.479172z"/> -->
<path style="fill:#ffffff; stroke:none;" d="M196 0L196 1L204 3C203.146 -0.987091 199.511 0 196 0M14 6.44368C3.69917 8.24553 5 17.7234 5 26L5 83C5 88.5968 2.52307 102.219 7.43364 106.062C13.5294 110.832 39.6814 111.167 45.142 105.272C48.5873 101.553 44.4669 90.0672 51.0502 89.1759C56.6105 88.4231 54.0963 106.138 63.0008 107.772C71.214 109.279 80.6565 107.943 89 108.001C92.0509 108.022 97.4902 107.881 98.0787 112C98.9687 118.23 80.653 116 77 116L25 116C18.8105 116 9.71301 114.518 6.17901 121.055C3.58147 125.859 5 133.702 5 139L5 180C5 185.544 3.45577 194.295 8.39429 198.258C11.6704 200.886 17.0894 200 21 200L53 200L152 200C163.782 200 183.031 203.71 193.956 199.258C200.801 196.468 199 186.895 199 181C199 165.334 199.075 149.666 198.999 134C198.971 128.123 199.079 119.595 192.956 116.653C186.19 113.401 164.253 112.603 160.028 120.109C155.56 128.047 159 145.962 159 155C159 158.729 161.033 180.721 153.129 177.593C148.255 175.663 150 166.066 150 162L150 132C150 127.297 150.659 121.895 146.772 118.434C140.385 112.747 125.929 116.091 118 115.996C115.179 115.962 108.579 116.249 107.461 112.741C105.344 106.091 124.79 108 128 108L180 108C185.566 108 194.549 109.705 197.821 103.891C200.927 98.3739 199 88.1662 199 82L199 30C199 24.1126 201.279 12.0277 195.606 8.16435C191.436 5.32512 184.772 6.00031 180 6L148 6L59 6C44.5175 6 28.273 3.94699 14 6.44368z"/>
<!-- <path style="fill:#df5b2d; stroke:none;" d="M16 22L16 74C16 78.2955 14.2756 90.0855 21.8711 88.6235C26.4144 87.749 25.9823 81.4616 25.9992 78C26.0564 66.2978 25.532 54.6161 27 43C41.7898 51.5392 54.7198 65.0686 68 75.8032C72.132 79.1432 79.0193 87.4772 84.9414 86.5733C90.5511 85.7171 89 76.974 89 73C89 59.8135 92.2589 41.6934 88.5664 29.044C87.3979 25.0412 81.9481 22.5368 79.7423 27.2292C78.1844 30.5432 79 35.4371 79 39L79 52L79 72C58.2141 56.5918 38.9533 33.844 16 22M138.001 23.4977C124.734 26.0864 131 48.6078 131 58C131 65.2649 128.274 79.5006 132.028 85.8519C136.523 93.4584 157.884 90.3246 165 88.7886C176.58 86.2889 190.514 77.9689 183.682 64.0008C181.569 59.6802 174.917 57.2946 173.816 52.8156C172.367 46.9136 178.616 40.8999 176.486 34.0154C173.032 22.849 147.392 21.6651 138.001 23.4977z"/> -->
<path style="fill:#ffffff; stroke:none;" d="M144.055 30.7423C137.627 33.3945 137.377 45.1115 142.419 49.2577C146.387 52.5213 155.632 50.5973 159.995 48.8519C166.13 46.398 169.274 38.4163 163.721 33.5139C159.834 30.0814 148.823 28.7746 144.055 30.7423M145.044 58.5725C137.873 60.763 136.718 75.4354 141.703 80.2724C146.517 84.9436 161.287 82.4555 166.996 80.3866C174.196 77.7775 176.731 67.986 170.656 62.6489C165.541 58.1554 151.453 56.6149 145.044 58.5725z"/>
<!-- <path style="fill:#df5b2d; stroke:none;" d="M43 128.518C23.6663 132.649 14.7285 157.151 26.5571 172.999C34.3883 183.492 47.7156 186.407 60 183.711C79.8391 179.357 87.8995 153.699 75.4707 138.015C68.1032 128.718 54.1889 126.127 43 128.518z"/> -->
<path style="fill:#ffffff; stroke:none;" d="M46 136.532C19.4185 142.863 31.1946 181.615 57 175.468C83.5846 169.134 71.326 130.501 46 136.532M0 204L0 208L9 208L9 207L0 204M203 204L196 207L196 208L204 208L203 204z"/>
</svg>
