<?xml version="1.0" standalone="yes"?>
<svg xmlns="http://www.w3.org/2000/svg" width="2692" height="638">
<path style="fill:#ffffff; stroke:none;" d="M0 0L0 1C13.6334 1.0376 19.0499 10.0355 28 19C44.5014 35.528 60.493 52.493 77 69C129.334 121.334 179.673 175.673 232 228C247.516 243.516 262.491 259.491 278 275C287.648 284.648 299.615 294.155 305 307C311.421 301.481 311 293.825 311 286L311 246L311 72C311 53.4364 307.15 30.0274 311.533 12C313.262 4.8905 319.083 1.35962 326 1L297 0L230 0L0 0z"/>
<path style="fill:#e7e7e7; stroke:none;" d="M305 307C301.697 295.562 291.138 287.138 283 279C267.818 263.818 253.18 248.18 238 233C183.335 178.335 130.669 121.669 76 67C60.4922 51.4922 45.5148 35.5158 30 20C20.3111 10.3105 14.6284 1.0097 0 1L0 406C10.871 406 34.4523 411.635 42.3619 402.66C47.8438 396.439 47 386.668 47 379C47 361.276 46 343.694 46 326L46 176C46 161.635 47.0046 147.303 47 133C46.9972 124.305 44.9356 116.408 48 108C88.3174 148.317 129.65 187.65 170 228C198.278 256.278 227.343 284.352 254.17 314C277.656 339.957 304.336 363.045 327.83 389C337.073 399.211 350.84 412.294 365.995 405.347C376.498 400.533 371.688 388.729 371.09 380C369.573 357.882 371 335.174 371 313C371 245.731 372 178.345 372 111C372 80.3434 377.241 43.9402 370.319 14C366.839 -1.05493 350.886 1.72449 339 0.910522C332.048 0.434387 324.578 -0.962769 318.015 2.45599C310.178 6.53894 311 15.4794 311 23L311 77L311 243C311 261.196 317.07 292.272 305 307z"/>
<path style="fill:#ffffff; stroke:none;" d="M335 0L335 1C344.083 1 357.38 -0.849915 364.895 5.41895C371.532 10.9556 370.564 19.3194 371.09 27C372.229 43.6393 372 60.2936 372 77C372 153.667 371 230.415 371 307C371 330.976 370.427 355.032 371.015 379C371.241 388.24 376.343 399.135 365.995 404.86C355.848 410.475 344.75 404.121 337.001 397.561C317.176 380.777 300.383 359.383 282 341C229.999 288.999 179.019 236.019 127 184C102.045 159.045 76.8525 128.324 48 108C44.4175 115.444 46.9025 123.125 46.9961 131C47.1621 144.953 46 158.983 46 173L46 328C46 345.026 47 361.944 47 379C47 386.855 47.5467 396.535 41.6096 402.66C33.2173 411.317 11.1164 406 0 406L0 638L439 638C439 609.317 438 580.731 438 552C438 542.814 434.619 525.207 439.179 517.109C442.399 511.391 449.894 513.092 451.566 519.015C454.379 528.977 452 542.655 452 553C476.33 545.247 485.525 516.079 514 516C505.419 528.148 491.276 539.269 480 549C474.458 553.783 466.067 559.3 464.573 567C461.975 580.392 484.624 595.286 492.83 603.286C499.666 609.949 506.339 617.297 511.986 625C514.507 628.44 517.447 635.551 521.39 637.397C528.65 640.796 543.007 638 551 638L622 638L622 637C604.952 628.935 588.811 613.194 583.029 595C571.474 558.645 595.839 516.507 634 510.439C679.408 503.218 720.225 544.443 709.102 590C703.702 612.117 687.979 624.871 670 637L670 638L783 638C782.752 608.091 781 578.053 781 548C781 539.687 777.572 521.417 784.228 515.318C789.294 510.676 801.544 512 808 512C821.141 512 836.988 512.705 847.985 520.789C864.497 532.925 863.182 560.57 846.999 572.211C839.209 577.816 830.011 578.669 821 581C831.584 600.881 853.156 616.38 860 638L931 638L931 552C931 542.479 927.941 526.403 933.228 518.094C936.581 512.825 942.262 512.02 948 512.001C960.619 511.959 973.313 513 986 513C990.978 513 1001.7 511.312 1001.7 519.001C1001.7 526.223 993.024 525.998 988 526C978.427 526.004 951.636 521.334 946.457 531.044C944.534 534.649 945 539.059 945 543C945 548.389 943.911 555.314 947.653 559.772C953.449 566.677 973.702 563 982 563C987.554 563 1002.29 561.283 1000.62 570.982C999.65 576.65 992.492 576.942 988 576.996C977.305 577.124 963.247 574.334 953.004 576.943C941.102 579.974 943.437 606.239 945.228 615.999C946.759 624.342 954.654 622.566 961 623.17C978.125 624.799 1000.98 613.419 1001 638L1060 638L1077.69 595L1119 508C1133.06 534.374 1144.85 562.795 1157.31 590C1164.12 604.875 1173.56 621.7 1176 638L1244 638L1244 510L1300.84 575L1327 604L1327 535C1327 528.912 1323.21 513.961 1333 513.827C1343.75 513.681 1340 535.166 1340 542C1340 572.58 1341.6 604.845 1336 635L1334 635L1306.17 602L1257 547L1257 605C1257 616.497 1258.45 627.588 1253 638L1463 638L1463 552C1463 542.809 1459.8 526.027 1464.86 518.044C1467.76 513.473 1472.92 512.146 1478 512.015C1491.5 511.667 1505.47 511.941 1519 512.001C1523.83 512.022 1533.54 512.094 1533.54 519.012C1533.54 526.629 1524.17 525.999 1519 526C1508.67 526.001 1483.01 521.131 1477.97 532.015C1476.38 535.451 1476.05 539.27 1476 543C1475.71 568.463 1495.23 562.526 1514 562.985C1519.21 563.113 1534.19 560.99 1533.34 570C1532.78 575.879 1525.61 576.87 1521 576.985C1509.72 577.267 1492.54 573.564 1482.02 577.742C1473.09 581.288 1475.7 598.292 1476.04 606C1476.22 610.193 1476 618.335 1479.43 621.258C1482.58 623.936 1488.18 623 1492 623C1506.66 623 1535.71 616.45 1533 638L1592 638C1602.51 592.602 1632.4 550.9 1650 508L1651 508C1667.85 551.434 1697.44 592.359 1708 638L1791 638C1790.83 617.365 1788.97 596.753 1789 576C1789.02 562.34 1791.58 548.622 1788.83 535C1786.79 524.932 1778.98 526.637 1771 525.941C1766.89 525.583 1762.57 522.746 1763.38 518.019C1764.38 512.148 1772.41 512.058 1777 512.004C1789.99 511.849 1803.01 511.849 1816 512.004C1820.36 512.056 1827.46 512.038 1829.21 517.059C1830.56 520.923 1827.67 524.729 1823.98 525.682C1815.8 527.799 1806.43 523.362 1804.33 535C1800.25 557.531 1804 584.083 1804 607C1804 617.405 1805.49 628.378 1801 638L1895 638C1895 609.007 1895.34 579.991 1895 551C1894.88 541.252 1890.45 525.913 1895.94 517.058C1898.91 512.254 1904.91 511.915 1910 512.015C1922.98 512.271 1935.95 513 1949 513C1953.77 513 1963.31 511.442 1964.46 518.043C1965.87 526.15 1955.1 525.998 1950 526C1937.41 526.005 1913.04 522.027 1907.15 537.001C1906.03 539.834 1905.92 542.992 1906.04 546C1906.96 568.631 1929.37 563 1946 563C1951.54 563 1963.7 561.393 1963.7 569.999C1963.7 576.539 1954.72 576.754 1950 576.961C1940.82 577.363 1910.52 571.814 1908.23 584.015C1906.83 591.474 1904.83 616.454 1911.23 621.397C1914.15 623.65 1918.55 623 1922 623C1934.17 623.001 1971.65 617.13 1961 638L2035 638C2034.78 627.323 2032.51 616.68 2032.04 606C2031.19 586.623 2033 567.305 2033 548C2033 540.278 2029.56 521.08 2035.32 515.318C2040.17 510.462 2053.63 513 2060 513C2071.98 513 2087.62 512.715 2097.99 519.549C2115.85 531.324 2114.84 560.288 2098 572.363C2090.3 577.887 2080.9 578.698 2072 581C2079.43 594.048 2090.04 606.046 2099.13 618C2104.3 624.793 2109.73 628.925 2109 638L2215 638C2211.86 626.449 2214.95 615.803 2213.83 604C2212.01 584.884 2206.12 566.673 2196.57 550C2191.97 541.962 2186.69 534.302 2181 527C2178.95 524.362 2175.49 520.794 2176.66 517.105C2179.24 508.994 2188.1 513.852 2191.48 518.015C2201.2 529.975 2209.76 545.404 2217 559C2228.99 553.362 2234.98 535.738 2241.61 525C2244.29 520.658 2248.32 513.307 2254 512.647C2259.26 512.036 2263.46 517.269 2260.95 522C2254.4 534.302 2243.93 543.968 2237.78 557C2225.93 582.109 2225 610.785 2225 638L2692 638L2692 333L2691 333C2686.1 354.174 2679.67 373.935 2663 388.826C2624.31 423.384 2547.17 423.029 2512.44 381.999C2491.59 357.375 2493 324.383 2493 294C2493 274.016 2492 254.04 2492 234L2492 170C2492 162.509 2489.76 150.503 2494.7 144.214C2498.84 138.946 2507.02 139.698 2513 140.043C2522.77 140.608 2524.96 148.559 2525 157C2525.08 173.368 2524 189.702 2524 206C2524 234.665 2524.99 263.417 2525 292C2525.01 310.364 2522.63 330.519 2529.46 348C2544.71 387.002 2601.21 397.851 2634 374.254C2657.84 357.097 2660 328.932 2660 302L2660 206C2660 190.348 2659.63 174.647 2660.01 159C2660.16 153.114 2660.48 144.534 2666.1 141.14C2673.26 136.823 2684.15 140.935 2692 141L2692 0L2091 0L2091 1C2126.85 1 2165.26 2.79797 2196 23.5201C2233.07 48.5089 2248.96 100.541 2227.68 141C2217.93 159.538 2201.67 172.061 2185 184C2195.22 192.466 2210.52 195.621 2222 202.453C2247.92 217.872 2266.57 242.261 2272.55 272C2285.07 334.214 2233.96 386.869 2177 401.105C2145.94 408.868 2112.74 406 2081 406L2029 406C2021.64 406 2012.88 408.218 2006.04 404.544C1996.43 399.374 2000 381.054 2000 372L2000 276L2000 72L2000 22C2000 16.2184 1998.4 7.72424 2003.23 3.43365C2008.09 -0.887024 2017.97 1 2024 1L2078 1C2066.54 -3.80707 2046.47 0 2034 0L1931 0L1574 0L335 0z"/>
<path style="fill:#e7e7e7; stroke:none;" d="M2185 184C2246.54 153.388 2254.79 66.7366 2200 25.6652C2160.33 -4.07068 2105.51 1 2059 1C2043.06 1 2021.33 -2.89172 2006.02 1.43365C1995.24 4.47729 2000 34.0631 2000 43L2000 176L2000 343L2000 385C2000 390.492 1998.82 398.087 2002.7 402.606C2008.71 409.598 2022.1 406 2030 406L2106 406C2141.47 406 2176.53 406.388 2209 389.741C2266.46 360.283 2296.52 286.544 2255.1 231C2236.44 205.962 2210.6 198.941 2185 184z"/>
<path style="fill:#ffffff; stroke:none;" d="M2051.02 42.7423C2042.6 46.103 2046 63.6885 2046 71C2046 94.0267 2045 116.943 2045 140C2045 146.365 2043.56 161.315 2047.18 166.566C2050.69 171.671 2064.56 168.717 2070 169.09C2094.49 170.766 2120.99 169.536 2144 159.988C2180.26 144.944 2207.91 94.5191 2172.91 62.3002C2149.18 40.4591 2112.96 42 2083 42C2073.81 42 2059.6 39.3162 2051.02 42.7423z"/>
<path style="fill:#e7e7e7; stroke:none;" d="M1636 132.424C1606.94 136.242 1577.82 142.254 1552 157.001C1532.73 168.009 1515.47 182.097 1503.44 201C1470.34 252.984 1479.04 326.104 1524 367.91C1574.32 414.702 1653.35 425.486 1717 403.305C1756.68 389.475 1787.71 360.407 1798.37 319C1800.88 309.272 1807.01 291.659 1801.82 282.055C1796.95 273.053 1781.01 277.789 1773 277.985C1750.42 278.539 1727.65 277 1705 277C1696.88 277 1684.34 274.715 1677.11 279.14C1666.48 285.644 1672.61 303.968 1684 304.907C1703.39 306.505 1723.54 305 1743 305C1748.93 305 1760.29 302.815 1764.39 308.228C1769.67 315.205 1758.53 332.145 1754.64 338C1751.17 343.242 1747.16 348.26 1742.71 352.715C1666.3 429.232 1490.23 366.111 1519.9 248C1537.2 179.119 1627.7 146.108 1691 167.001C1706.55 172.133 1720.99 178.694 1735 187.203C1742.81 191.949 1750.95 200.432 1760 202.464C1768.79 204.437 1781.02 193.355 1782.67 185.001C1783.74 179.515 1778.92 177.423 1775 175.125C1767.14 170.52 1759.92 164.852 1752 160.284C1718.14 140.751 1675.55 127.229 1636 132.424M724 133.424C697.024 136.966 672.427 142.216 649 157.053C581.656 199.706 558.387 297.019 614.171 359C653.259 402.431 712.034 419.791 769 411.715C790.75 408.631 812.202 400.88 831 389.6C847.264 379.841 861.822 367.095 873.346 352C882.833 339.573 890.278 325.049 894.573 310C923.998 206.886 823.25 120.393 724 133.424M1271 338C1266.54 326.249 1255.55 317.755 1247.01 309C1230.91 292.491 1213.55 276.408 1198.42 259C1170.42 226.765 1138.2 197.201 1108 167C1101.49 160.487 1086.94 137.151 1076.11 141.743C1069.94 144.361 1072.35 152.94 1072.83 158C1074.33 173.732 1073 190.196 1073 206L1073 339L1073 379C1073 385.213 1071.75 393.023 1073.65 398.996C1077 409.53 1098.35 410.164 1103.54 400.895C1107.39 394.035 1105.59 385.335 1105.09 378C1104.34 367.095 1105 355.931 1105 345L1105 293L1105 212C1121.98 217.032 1137.71 240.712 1150 253C1185.33 288.327 1219.66 324.661 1255 360C1266.84 371.837 1278.39 383.915 1289.96 396C1294.17 400.398 1298.83 407.159 1305.96 404.396C1312.89 401.707 1310.47 393.557 1310.09 388C1309.05 372.807 1310 357.23 1310 342L1310 183C1310 165.617 1315.15 130.235 1286 140.344C1273.54 144.668 1278 167.742 1278 178L1278 294C1278 304.885 1283.4 334.274 1271 338M2692 141C2683.98 140.834 2672.49 136.442 2665.21 141.14C2660.06 144.469 2660.07 153.524 2660 159C2659.82 174.662 2660 190.337 2660 206L2660 298C2660 326.632 2658.46 355.937 2633 374.254C2600.04 397.968 2545.89 386.056 2529.88 348C2522.22 329.802 2525.09 308.248 2525 289C2524.85 257.528 2521.84 225.448 2524.83 194C2525.99 181.866 2525.02 169.188 2525 157C2524.99 152.231 2525.21 146.229 2521.43 142.653C2517.08 138.53 2506.53 139.337 2501 140.214C2493.7 141.371 2492.08 147.528 2492 154C2491.84 167.662 2492 181.337 2492 195C2492 229.351 2493 263.721 2493 298C2493 323.018 2491.86 350.76 2505.21 373C2538.4 428.327 2647.17 428.254 2678.69 371C2694.11 342.984 2692 311.782 2692 281L2692 141z"/>
<path style="fill:#ffffff; stroke:none;" d="M728 160.425C706.951 163.29 687.296 170.236 669 181.011C611.206 215.047 597.882 294.68 643.171 345C671.41 376.377 716.653 389.659 758 384.715C777.186 382.42 795.386 376.279 812 366.396C824.851 358.751 836.564 349.038 845.522 337C853.085 326.837 858.418 316.004 862.33 304C888.421 223.951 805.716 149.846 728 160.425M2055 211.458C2040.11 213.695 2046 233.699 2046 244L2046 328C2046 337.499 2041.81 352.349 2047.14 360.867C2051.39 367.659 2065.18 365 2072 365C2096.95 365 2122.26 366.154 2147 362.572C2194.03 355.762 2246.47 312.481 2218.14 261C2213.51 252.595 2207.13 245.542 2200 239.174C2171.05 213.337 2125.66 212 2089 212C2078.22 212 2065.52 209.879 2055 211.458z"/>
<path style="fill:#e7e7e7; stroke:none;" d="M1119 508C1103.41 534.711 1090.73 564.737 1078.14 593C1071.86 607.097 1062.3 622.618 1060 638C1063.72 638 1069.34 639.025 1072.62 636.972C1077.33 634.027 1079.86 625.77 1082.25 621C1088.98 607.539 1097.56 595.174 1114 595.004C1123.28 594.908 1139 594.562 1145.61 602.108C1153.46 611.071 1153.79 630.097 1163.64 636.972C1166.67 639.092 1172.47 638 1176 638L1164.85 606L1137.26 547L1119 508M1650 508C1637.7 529.612 1628.83 553.692 1617.75 576C1608.42 594.796 1595.09 617.05 1592 638C1595.47 638 1600.4 638.879 1603.62 637.397C1613.39 632.894 1615.03 612.968 1621.39 605.015C1628.09 596.649 1641.89 594.932 1652 595.005C1665.6 595.102 1677.04 602.785 1684.3 614C1688.07 619.816 1690.4 633 1695.7 636.972C1698.59 639.136 1704.58 638 1708 638C1703.45 607.177 1682.38 577.082 1669.86 549C1664.44 536.847 1659.22 517.501 1650 508M642 509.428C628.846 511.004 616.815 513.711 606 521.9C565.277 552.733 575.626 613.772 619 636.084C629.832 641.656 654.957 639.425 667 637.867C682.302 635.886 697.948 616.771 704.244 604C725.184 561.519 692.37 503.394 642 509.428M1244 510L1244 638C1258.87 637.989 1257 626.857 1257 615L1257 547C1282.22 575.864 1311.96 603.688 1334 635L1336 635C1342.97 605.745 1340 571.931 1340 542C1340 534.918 1343.93 513.238 1333 513.494C1322.73 513.734 1327 528.525 1327 535L1327 604L1270.16 539L1244 510M783 638L792.911 636.397L796 619L798 581L829.13 618L846.039 636.972L860 638C856.202 618.303 832.642 597.013 821 581C829.53 579.346 838.479 578.183 846 573.532C862.636 563.244 865.215 534.361 849.907 521.529C838.954 512.348 821.557 512 808 512C801.666 512 788.189 510.413 783.434 515.318C777.583 521.353 781 540.072 781 548C781 578.095 782.382 608.037 783 638M931 638L1001 638C1001 633.438 1001.76 627.248 998.297 623.653C992.327 617.46 970.627 623.991 962 623.17C955.092 622.512 946.88 624.042 945.228 615C943.397 604.972 941.203 579.684 954.001 577.018C964.704 574.788 978.008 577.128 989 576.996C993.578 576.941 1000.15 576.773 1000.83 570.982C1002.06 560.548 987.403 563 981 563C971.527 563 951.636 567.017 946.457 556.985C944.303 552.813 944.998 547.537 945 543C945.001 539.685 944.722 536.139 946.009 533.004C950.949 520.973 977.339 526.001 988 526C993.791 526 1002.83 526.475 1001.83 518.018C1001 511.002 990.997 513 986 513C972.971 513 959.97 511.938 947 512.001C941.424 512.028 935.657 512.666 932.688 518.094C927.893 526.863 931 543.212 931 553L931 638M1463 638L1533 638C1538.37 609.072 1493.5 631.287 1480.23 621.258C1475.9 617.986 1476.14 608.963 1476.01 604C1475.84 596.933 1474.19 584.402 1480.13 579.434C1485.84 574.661 1498.01 577 1505 577C1511.93 577 1532.9 580.466 1533.66 570C1534.35 560.556 1519.66 563.209 1514 562.961C1496.77 562.206 1475.83 568.347 1476 544C1476.03 540.601 1476.33 537.204 1477.56 534.001C1482.53 521.063 1507.49 526.004 1519 526C1524.78 525.998 1534.86 526.865 1533.73 518.043C1532.89 511.491 1523.88 512.008 1519 512C1505.68 511.979 1492.31 511.941 1479 512.001C1473.87 512.024 1468.01 512.382 1464.86 517.108C1459.72 524.811 1463 542.017 1463 551L1463 638M1791 638C1807.73 637.998 1804 624.118 1804 611L1804 553C1804 545.761 1802.07 535.05 1807.42 529.228C1812.99 523.167 1824.74 529.815 1828.82 522.852C1832.61 516.383 1826.58 512.741 1821 512.171C1806.95 510.734 1792.13 511.977 1778 512C1773.75 512.007 1765.65 511.334 1763.6 516.147C1761.95 520.031 1763.95 524.616 1768.02 525.682C1776.83 527.992 1786.33 523.61 1788.83 536C1791.45 549.003 1789.02 561.969 1789 575C1788.97 596.118 1790.57 616.994 1791 638M1895 638C1914.67 638 1934.34 638.135 1954 637.999C1959.43 637.962 1968.73 633.212 1963.24 626.433C1957.04 618.765 1931.92 623.001 1923 623C1917.29 623 1911.21 623.344 1908.74 616.995C1906.73 611.835 1908 604.459 1908 599C1908 594.29 1907.15 588.583 1908.43 584.015C1911.9 571.71 1941.25 577.388 1951 576.961C1956.69 576.712 1965.68 576.102 1963.68 568.044C1961.94 561.044 1951.35 563 1946 563C1929.3 563 1906.5 568.198 1906.05 545C1905.63 523.145 1933.34 526 1948 526C1953.91 526 1967.29 527.138 1964.55 517.109C1962.94 511.221 1953.57 513 1949 513C1935.65 513 1922.28 512.002 1909 512.002C1904.09 512.002 1897.97 512.035 1895.43 517.058C1890.59 526.635 1894.87 541.77 1895 552C1895.34 580.658 1895 609.34 1895 638M2225 638C2225 606.898 2227.74 577.06 2242.26 549C2247.27 539.307 2255.64 532.227 2260.99 523C2264.13 517.581 2260.36 511.808 2254 512.333C2247.76 512.849 2243.88 520.271 2241 525C2233.97 536.563 2228.35 550.941 2217 559C2212.02 545.409 2200.8 528.151 2191.48 517.044C2187.85 512.717 2176.9 509.117 2176.21 518.043C2175.79 523.4 2181.18 528.088 2184.1 532C2190.9 541.071 2196.81 550.804 2201.74 561C2208.61 575.196 2213.27 591.178 2213.96 607C2214.3 614.674 2211.89 622.454 2212.5 630C2213.14 637.907 2218.56 637.999 2225 638M439 638L449.157 636.397L452.83 623L454 586L489.83 622L504.09 637.397L520 638C514.401 618.974 493.488 603.488 480 590C474.642 584.642 463.7 576.709 464.718 568C465.558 560.822 473.955 555.055 479 550.729C489.738 541.521 508.007 528.816 514 516C485.92 516.019 475.002 542.118 452 553C452 542.436 454.526 528.188 451.566 518.044C450.011 512.714 442.198 511.29 439.179 516.228C434.625 523.676 438 541.387 438 550C438 579.397 438.997 608.659 439 638M2035 638L2045 638C2045 630.583 2045.13 623.373 2045.83 616C2046.6 607.883 2046.94 599.145 2047 591C2047.02 588.353 2046.39 583.54 2049.3 582.06C2054.1 579.63 2063.19 595.758 2065.63 599L2085.13 625C2087.97 628.786 2090.95 634.607 2095.17 636.972C2098.91 639.065 2104.85 638 2109 638C2110.49 628.939 2105.07 624.697 2099.89 618C2090.44 605.792 2081.6 593.099 2072 581C2080.51 579.35 2089.43 578.152 2097 573.647C2114.47 563.255 2116.47 532.503 2099.91 520.221C2088.88 512.042 2071.08 513 2058 513C2052.25 513 2039.95 510.699 2035.32 514.603C2029.55 519.466 2033 539.919 2033 547C2033 577.58 2033.69 607.483 2035 638z"/>
<path style="fill:#ffffff; stroke:none;" d="M642 523.426C621.842 526.073 604.3 538.028 597.749 558C586.93 590.986 612.098 630.114 649 625.714C672.735 622.885 691.734 607.313 695.561 583C700.325 552.733 674.346 519.179 642 523.426M803.004 526.653C793.696 529.612 791.888 556.431 798.228 562.772C805.177 569.72 823.618 566.541 832 563.776C843.101 560.114 849.222 544.286 840.775 535.105C833.268 526.946 813.485 523.32 803.004 526.653M2053.04 526.653C2042.97 530.006 2043.16 557.111 2049.42 563.721C2055.37 570.003 2076.52 566.588 2084 563.895C2096.03 559.568 2100.18 541.542 2090.66 532.393C2083.76 525.761 2061.92 523.698 2053.04 526.653M1650 543C1646.43 551.59 1633.06 568.719 1635.33 577.891C1637.2 585.401 1661.15 585.404 1664.82 579.606C1666.85 576.388 1665.11 572.061 1663.63 569C1659.59 560.705 1655.53 550.302 1650 543M1117 546C1113.52 554.35 1101.3 569.6 1103.36 578.867C1104.88 585.674 1127.39 584.303 1131.85 581.142C1139.68 575.593 1123.48 549.166 1117 546M2045 638L2095 638C2085.93 622.086 2072.86 607.653 2061.87 593C2059.7 590.108 2053.94 579.124 2049.3 581.327C2045.42 583.172 2047.16 591.57 2046.83 595C2045.47 609.259 2045 623.658 2045 638M798 581L793 638L846 638C833.767 619.507 816.199 593.82 798 581M454 586L449 638L503 638C494.866 623.861 481.463 611.464 470 600C465.088 595.088 460.358 588.965 454 586M1073 638L1163 638C1160.08 627.873 1152.71 607.446 1144.79 600.419C1135.3 592.006 1106.91 592.556 1097 599.638C1085.75 607.68 1078.35 625.589 1073 638M1605 638L1695 638C1688.72 610.869 1670.06 591.118 1641 595.92C1635.66 596.801 1629.58 597.566 1625.02 600.702C1616.29 606.699 1608.16 628.002 1605 638z"/>
</svg>
